<svg version="1.1" id="Layer_1" xmlns="http://www.w3.org/2000/svg" xmlns:xlink="http://www.w3.org/1999/xlink" x="0px" y="0px"
	 width="100%" viewBox="0 0 1080 1080" enable-background="new 0 0 1080 1080" xml:space="preserve">
<path fill="#0284C7" opacity="1.000000" stroke="none" 
	d="
M501.000000,1081.000000 
	C334.019226,1081.000000 167.538422,1081.000000 1.028820,1081.000000 
	C1.028820,721.060730 1.028820,361.121521 1.028820,1.091133 
	C360.897675,1.091133 720.795410,1.091133 1080.846558,1.091133 
	C1080.846558,360.999939 1080.846558,720.999939 1080.846558,1081.000000 
	C887.787659,1081.000000 694.643860,1081.000000 501.000000,1081.000000 
M701.907898,375.274933 
	C700.461365,373.449127 699.024353,371.615692 697.566833,369.798706 
	C679.122437,346.805542 656.185608,330.584961 627.446777,322.945526 
	C603.402222,316.553925 578.809021,315.323822 554.151855,315.231262 
	C498.852081,315.023590 443.551025,315.152924 388.250488,315.172607 
	C374.686310,315.177429 369.258728,320.685333 369.258209,334.392914 
	C369.253418,465.814972 369.256317,597.237061 369.293579,728.659119 
	C369.294464,731.810059 369.501221,734.995300 369.990540,738.104919 
	C371.123535,745.305298 375.350311,749.338562 382.613953,750.031677 
	C388.062317,750.551575 393.548431,750.675903 398.896484,751.908752 
	C398.936249,756.403625 398.715576,760.919312 399.071930,765.388977 
	C399.741241,773.782959 403.773315,777.989441 412.076508,779.251526 
	C414.860107,779.674622 417.706512,779.844421 420.524994,779.852295 
	C439.013245,779.903809 457.501801,779.907410 475.990021,779.856567 
	C479.808624,779.846069 483.672607,779.857178 487.435547,779.308594 
	C497.085449,777.901794 501.339874,773.077087 501.928131,763.331055 
	C502.058441,761.172729 501.997620,759.002014 501.997681,756.836975 
	C502.000397,652.402588 502.032104,547.968079 501.900330,443.533844 
	C501.894135,438.617676 503.005707,436.924225 508.229431,436.993042 
	C530.378357,437.284821 552.534302,437.246735 574.685669,437.069916 
	C589.043518,436.955322 603.324463,437.038696 617.572815,442.478760 
	C624.716309,461.134460 623.544922,478.807770 610.558411,494.613403 
	C602.212952,504.770569 591.295532,511.272186 578.652771,515.030151 
	C567.407776,518.372559 555.918396,517.740662 544.444641,517.846436 
	C532.459534,517.956909 526.526184,523.229675 526.462646,535.025330 
	C526.337097,558.346313 526.405090,581.682007 527.193909,604.984558 
	C527.391846,610.833374 529.438965,617.359253 532.653564,622.247375 
	C555.242737,656.596741 578.415955,690.561401 601.275818,724.733765 
	C608.463440,735.478455 615.715393,745.994019 628.870239,750.924683 
	C632.411255,756.143494 635.789551,761.482300 639.530029,766.554016 
	C645.639160,774.837341 654.078857,779.512878 664.278503,779.634277 
	C691.594849,779.959290 718.919495,780.008667 746.235779,779.706543 
	C756.340149,779.594788 761.229980,771.121887 757.318115,761.754944 
	C756.365234,759.473267 755.015686,757.318542 753.607422,755.271301 
	C724.342651,712.728149 695.040527,670.210632 665.761292,627.677429 
	C664.767090,626.233154 663.934387,624.677673 663.052734,623.217590 
	C663.711914,622.622192 663.919373,622.332397 664.201111,622.198730 
	C665.253052,621.699219 666.331604,621.255981 667.396118,620.782593 
	C705.577637,603.802185 732.019775,575.717896 746.569092,536.581543 
	C756.699402,509.331543 756.400696,481.395081 750.608276,453.393188 
	C745.121948,426.870575 733.765137,403.261841 713.663025,384.512238 
	C710.196777,381.279175 706.147217,378.671448 701.907898,375.274933 
z"/>
<path fill="#FEFFFF" opacity="1.000000" stroke="none" 
	d="
M628.859863,750.217529 
	C615.715393,745.994019 608.463440,735.478455 601.275818,724.733765 
	C578.415955,690.561401 555.242737,656.596741 532.653564,622.247375 
	C529.438965,617.359253 527.391846,610.833374 527.193909,604.984558 
	C526.405090,581.682007 526.337097,558.346313 526.462646,535.025330 
	C526.526184,523.229675 532.459534,517.956909 544.444641,517.846436 
	C555.918396,517.740662 567.407776,518.372559 578.652771,515.030151 
	C591.295532,511.272186 602.212952,504.770569 610.558411,494.613403 
	C623.544922,478.807770 624.716309,461.134460 617.324707,441.842377 
	C612.402039,430.012299 604.602112,421.651764 593.992554,415.884552 
	C583.194641,410.014984 571.585266,407.755493 559.349121,407.813934 
	C533.017395,407.939667 506.684631,407.825470 480.352386,407.863159 
	C472.019775,407.875061 472.845123,406.940125 472.843597,415.337921 
	C472.824738,519.000549 472.840302,622.663208 472.796692,726.325867 
	C472.795013,730.306458 472.612030,734.342651 471.941803,738.254944 
	C470.783997,745.013123 466.298981,749.159973 459.437195,749.947083 
	C455.148468,750.439087 450.799072,750.511047 446.474457,750.561768 
	C430.656097,750.747559 414.836731,750.845398 399.017731,750.976318 
	C393.548431,750.675903 388.062317,750.551575 382.613953,750.031677 
	C375.350311,749.338562 371.123535,745.305298 369.990540,738.104919 
	C369.501221,734.995300 369.294464,731.810059 369.293579,728.659119 
	C369.256317,597.237061 369.253418,465.814972 369.258209,334.392914 
	C369.258728,320.685333 374.686310,315.177429 388.250488,315.172607 
	C443.551025,315.152924 498.852081,315.023590 554.151855,315.231262 
	C578.809021,315.323822 603.402222,316.553925 627.446777,322.945526 
	C656.185608,330.584961 679.122437,346.805542 697.566833,369.798706 
	C699.024353,371.615692 700.461365,373.449127 702.117798,375.875580 
	C714.575562,396.006775 720.923706,417.461670 724.018433,440.189331 
	C732.709167,504.013611 698.070190,565.632324 638.750488,591.222900 
	C637.114014,591.928894 635.515015,592.721558 633.643127,593.592651 
	C634.348267,594.919678 634.786987,595.981384 635.423157,596.907410 
	C645.145203,611.060913 654.902771,625.190002 664.632874,639.337830 
	C685.000488,668.953125 705.381104,698.559448 725.693420,728.212585 
	C729.023560,733.074097 730.888977,738.480835 727.911377,744.121094 
	C724.963013,749.705994 719.495972,750.458374 713.782593,750.437439 
	C698.789795,750.382629 683.796692,750.446411 668.803772,750.412720 
	C655.489075,750.382751 642.174500,750.285217 628.859863,750.217529 
z"/>
<path fill="#67B5DE" opacity="1.000000" stroke="none" 
	d="
M398.957092,751.442505 
	C414.836731,750.845398 430.656097,750.747559 446.474457,750.561768 
	C450.799072,750.511047 455.148468,750.439087 459.437195,749.947083 
	C466.298981,749.159973 470.783997,745.013123 471.941803,738.254944 
	C472.612030,734.342651 472.795013,730.306458 472.796692,726.325867 
	C472.840302,622.663208 472.824738,519.000549 472.843597,415.337921 
	C472.845123,406.940125 472.019775,407.875061 480.352386,407.863159 
	C506.684631,407.825470 533.017395,407.939667 559.349121,407.813934 
	C571.585266,407.755493 583.194641,410.014984 593.992554,415.884552 
	C604.602112,421.651764 612.402039,430.012299 617.080078,441.569031 
	C603.324463,437.038696 589.043518,436.955322 574.685669,437.069916 
	C552.534302,437.246735 530.378357,437.284821 508.229431,436.993042 
	C503.005707,436.924225 501.894135,438.617676 501.900330,443.533844 
	C502.032104,547.968079 502.000397,652.402588 501.997681,756.836975 
	C501.997620,759.002014 502.058441,761.172729 501.928131,763.331055 
	C501.339874,773.077087 497.085449,777.901794 487.435547,779.308594 
	C483.672607,779.857178 479.808624,779.846069 475.990021,779.856567 
	C457.501801,779.907410 439.013245,779.903809 420.524994,779.852295 
	C417.706512,779.844421 414.860107,779.674622 412.076508,779.251526 
	C403.773315,777.989441 399.741241,773.782959 399.071930,765.388977 
	C398.715576,760.919312 398.936249,756.403625 398.957092,751.442505 
z"/>
<path fill="#68B5DE" opacity="1.000000" stroke="none" 
	d="
M628.865051,750.571167 
	C642.174500,750.285217 655.489075,750.382751 668.803772,750.412720 
	C683.796692,750.446411 698.789795,750.382629 713.782593,750.437439 
	C719.495972,750.458374 724.963013,749.705994 727.911377,744.121094 
	C730.888977,738.480835 729.023560,733.074097 725.693420,728.212585 
	C705.381104,698.559448 685.000488,668.953125 664.632874,639.337830 
	C654.902771,625.190002 645.145203,611.060913 635.423157,596.907410 
	C634.786987,595.981384 634.348267,594.919678 633.643127,593.592651 
	C635.515015,592.721558 637.114014,591.928894 638.750488,591.222900 
	C698.070190,565.632324 732.709167,504.013611 724.018433,440.189331 
	C720.923706,417.461670 714.575562,396.006775 702.347412,376.125549 
	C706.147217,378.671448 710.196777,381.279175 713.663025,384.512238 
	C733.765137,403.261841 745.121948,426.870575 750.608276,453.393188 
	C756.400696,481.395081 756.699402,509.331543 746.569092,536.581543 
	C732.019775,575.717896 705.577637,603.802185 667.396118,620.782593 
	C666.331604,621.255981 665.253052,621.699219 664.201111,622.198730 
	C663.919373,622.332397 663.711914,622.622192 663.052734,623.217590 
	C663.934387,624.677673 664.767090,626.233154 665.761292,627.677429 
	C695.040527,670.210632 724.342651,712.728149 753.607422,755.271301 
	C755.015686,757.318542 756.365234,759.473267 757.318115,761.754944 
	C761.229980,771.121887 756.340149,779.594788 746.235779,779.706543 
	C718.919495,780.008667 691.594849,779.959290 664.278503,779.634277 
	C654.078857,779.512878 645.639160,774.837341 639.530029,766.554016 
	C635.789551,761.482300 632.411255,756.143494 628.865051,750.571167 
z"/>
</svg>